<svg xmlns="http://www.w3.org/2000/svg" xmlns:xlink="http://www.w3.org/1999/xlink" viewBox="0 0 750 500"><defs><style>.cls-1{fill:none;}.cls-2{isolation:isolate;}.cls-3{clip-path:url(#clip-path);}.cls-4{fill:url(#Degradado_sin_nombre_65);}.cls-5{opacity:0.5;fill:url(#Degradado_sin_nombre_4);}.cls-5,.cls-6{mix-blend-mode:overlay;}.cls-6{fill:url(#Degradado_sin_nombre_2);}.cls-7{fill:url(#linear-gradient);}.cls-8{fill:url(#linear-gradient-2);}.cls-9{fill:url(#linear-gradient-3);}.cls-10{fill:url(#linear-gradient-4);}.cls-11{fill:url(#linear-gradient-5);}.cls-12{fill:url(#linear-gradient-6);}.cls-13{fill:url(#linear-gradient-7);}.cls-14{fill:url(#linear-gradient-8);}.cls-15{fill:url(#linear-gradient-9);}.cls-16{opacity:0.61;fill:url(#linear-gradient-10);}</style><clipPath id="clip-path"><rect class="cls-1" width="750" height="500"/></clipPath><radialGradient id="Degradado_sin_nombre_65" cx="378.26" cy="400.49" r="228.82" gradientTransform="translate(-197 -151.43) scale(1.53 1.38)" gradientUnits="userSpaceOnUse"><stop offset="0.01" stop-color="#46177d"/><stop offset="0.26" stop-color="#3b1369"/><stop offset="0.72" stop-color="#280d48"/><stop offset="0.98" stop-color="#210b3b"/></radialGradient><linearGradient id="Degradado_sin_nombre_4" x1="-9.5" y1="60.66" x2="608.85" y2="60.66" gradientUnits="userSpaceOnUse"><stop offset="0" stop-color="#b8daf3" stop-opacity="0"/><stop offset="0.28" stop-color="#b8daf3" stop-opacity="0.8"/><stop offset="0.66" stop-color="#b8daf3"/><stop offset="0.98" stop-color="#b8daf3" stop-opacity="0"/></linearGradient><linearGradient id="Degradado_sin_nombre_2" x1="-1408.84" y1="33.6" x2="-997.79" y2="33.6" gradientTransform="matrix(-1.09, 0.03, -0.02, -1, -738.84, 400.15)" gradientUnits="userSpaceOnUse"><stop offset="0" stop-color="#b8daf3" stop-opacity="0"/><stop offset="0.28" stop-color="#b8daf3" stop-opacity="0.8"/><stop offset="0.98" stop-color="#b8daf3" stop-opacity="0"/></linearGradient><linearGradient id="linear-gradient" x1="-614.68" y1="-350.34" x2="-208.06" y2="-350.34" gradientTransform="matrix(0.26, 0.97, -0.97, 0.26, -186.88, 727.57)" gradientUnits="userSpaceOnUse"><stop offset="0" stop-color="#00e98b"/><stop offset="1" stop-color="#46177d"/></linearGradient><linearGradient id="linear-gradient-2" x1="249.53" y1="378" x2="768.5" y2="378" gradientTransform="matrix(1, 0, 0, 1, 0, 0)" xlink:href="#linear-gradient"/><linearGradient id="linear-gradient-3" x1="-24.22" y1="395.48" x2="771.5" y2="395.48" gradientTransform="matrix(1, 0, 0, 1, 0, 0)" xlink:href="#linear-gradient"/><linearGradient id="linear-gradient-4" x1="571.36" y1="338.33" x2="571.36" y2="400.35" gradientTransform="matrix(1, 0, 0, 1, 0, 0)" xlink:href="#linear-gradient"/><linearGradient id="linear-gradient-5" x1="328" y1="313.96" x2="328" y2="339.32" gradientTransform="matrix(1, 0, 0, 1, 0, 0)" xlink:href="#linear-gradient"/><linearGradient id="linear-gradient-6" x1="569.36" y1="399.65" x2="569.36" y2="440.6" gradientTransform="matrix(1, 0, 0, 1, 0, 0)" xlink:href="#linear-gradient"/><linearGradient id="linear-gradient-7" x1="66.5" y1="253.81" x2="66.5" y2="279.94" gradientTransform="matrix(1, 0, 0, 1, 0, 0)" xlink:href="#linear-gradient"/><linearGradient id="linear-gradient-8" x1="94.5" y1="356.1" x2="94.5" y2="397.06" gradientTransform="matrix(1, 0, 0, 1, 0, 0)" xlink:href="#linear-gradient"/><linearGradient id="linear-gradient-9" x1="335.5" y1="364.95" x2="335.5" y2="400.05" gradientTransform="matrix(1, 0, 0, 1, 0, 0)" xlink:href="#linear-gradient"/><linearGradient id="linear-gradient-10" x1="338.86" y1="490.11" x2="2051.95" y2="490.11" gradientTransform="matrix(1, 0, 0, 1, 0, 0)" xlink:href="#linear-gradient"/></defs><title>Mesa de trabajo 5</title><g class="cls-2"><g id="background_2" data-name="background 2"><g class="cls-3"><rect class="cls-4" x="-5.5" y="-5" width="766" height="505"/><path class="cls-5" d="M-9.5-102V223.31l55.19-5.5S61.23,3.25,270.34,32.09c169.07,23.32,251.85,35,298.49,0S608.47-98.5,608.47-98.5Z"/><path class="cls-6" d="M795.23,437.53,790,221.2l-39.84,4.63c-.59.07-3.36,15.3-3.63,16.29A168.93,168.93,0,0,1,730,281.39c-17,29.21-44.66,56.34-91.32,62.14-27.07,3.37-54.75.32-81.41-3.87s-53.09-9.55-80.41-10.85-56.24,1.85-78.69,13.2a85.29,85.29,0,0,0-41.8,46.37c-7,18.69-8.23,38.57-8.26,57.74,42.65-1.85,85.94-1.7,128.73-2.51l225.85-4.32C707.77,439.2,795.23,437.45,795.23,437.53Z"/><path class="cls-7" d="M-30.78,48.93c15-.52,21.37,1.78,31,8.07,71,46.67-15,323.33,228.25,328.17,10.3,8.77,3.78,14,3.78,14L-40.92,472.78S-33.48,49-30.78,48.93Z"/><path class="cls-8" d="M250.69,398.42c4.35-14,19.93-25.46,30.81-32.74,53-35.51,107.84-11.1,161.18,9.12,91.54,34.7,230.74,32.64,288.18-67.76,2.81-4.91,23.84-64,19.14-64h18.5V513h-519V445.53c0-13.12.18-26.24,0-39.35A24.74,24.74,0,0,1,250.69,398.42Z"/><path class="cls-9" d="M-17.5,479.67c-2.42-8,79.76-168,368.72-87.87C469.3,426.5,648.85,424.44,723,324c3.62-4.91,30.75-64,24.68-64H771.5V530H102.07C-68.2,539-16.72,482.25-17.5,479.67Z"/><ellipse class="cls-10" cx="571.36" cy="355.55" rx="26.5" ry="25.45"/><ellipse class="cls-11" cx="328" cy="321" rx="10.83" ry="10.41"/><ellipse class="cls-12" cx="569.36" cy="425.55" rx="17.5" ry="16.81"/><ellipse class="cls-13" cx="66.5" cy="270.33" rx="11.17" ry="10.73"/><ellipse class="cls-14" cx="94.5" cy="382" rx="17.5" ry="16.81"/><ellipse class="cls-15" cx="335.5" cy="390" rx="15" ry="14.41"/><path class="cls-16" d="M643.53,530l298.66-.32s-77.4-6.19-145.33-38c-65.16-30.52-136.73-51.6-208.83-36.4-35.95,7.58-70.64,20.85-103.84,36.4-67.92,31.81-145.33,38-145.33,38l298.67.33h6Z"/></g></g></g></svg>