<svg id="Layer_1" data-name="Layer 1" xmlns="http://www.w3.org/2000/svg" xmlns:xlink="http://www.w3.org/1999/xlink" viewBox="0 0 258.82 258.77"><defs><style>.cls-1,.cls-2,.cls-3{opacity:0.7;}.cls-1{fill:url(#linear-gradient);}.cls-2{fill:url(#radial-gradient);}.cls-3{fill:url(#linear-gradient-2);}</style><linearGradient id="linear-gradient" x1="27.29" y1="145.33" x2="276.57" y2="145.33" gradientUnits="userSpaceOnUse"><stop offset="0" stop-color="#f8ed33"/><stop offset="0.27" stop-color="#e5e747"/><stop offset="0.83" stop-color="#b5d87a"/><stop offset="1" stop-color="#a5d38b"/></linearGradient><radialGradient id="radial-gradient" cx="182.67" cy="125.96" fx="49.24663346667805" fy="271.4370936181709" r="197.4" gradientTransform="translate(-36.83) scale(1.05 1)" gradientUnits="userSpaceOnUse"><stop offset="0" stop-color="#f8ed33"/><stop offset="0.06" stop-color="#e4e735"/><stop offset="0.2" stop-color="#b0d73c"/><stop offset="0.38" stop-color="#5ebe45"/><stop offset="0.45" stop-color="#3fb549"/><stop offset="0.5" stop-color="#4bb951"/><stop offset="0.73" stop-color="#7cc770"/><stop offset="0.9" stop-color="#9ad084"/><stop offset="1" stop-color="#a5d38b"/></radialGradient><linearGradient id="linear-gradient-2" x1="18.03" y1="164.57" x2="247.29" y2="164.57" gradientUnits="userSpaceOnUse"><stop offset="0" stop-color="#84c776"/><stop offset="0.14" stop-color="#83be79"/><stop offset="0.37" stop-color="#7fa680"/><stop offset="0.66" stop-color="#787f8d"/><stop offset="1" stop-color="#6f4a9e"/></linearGradient></defs><title>greenind</title><path class="cls-1" d="M263.79,96.86a75.05,75.05,0,0,0-7.74-9.67l.05,0S210.2,35,132.43,20.5l0,0A83.91,83.91,0,0,0,31.82,88.18C16,165.44,46.84,227.51,47,227.87a74.79,74.79,0,0,0,6,10.77c19.07,28.34,54.34,39.58,86.74,30.43,0,0,52.47-12.9,111.35-71.36h0C279,171,285.13,128.58,263.79,96.86Z" transform="translate(-17.75 -18.48)"/><path class="cls-2" d="M247.56,187.19a67.53,67.53,0,0,0-.92-11.17l0,0s-8.06-62.42-59.14-112.55l0,0a75.93,75.93,0,0,0-109.73,0c-50.93,50-59.09,112.18-59.14,112.54a68.14,68.14,0,0,0-.92,11.13c0,30.9,20.81,57.15,49.75,66.65,0,0,45.9,16.82,119.63,2.66h0C221.5,250.54,247.56,221.78,247.56,187.19Z" transform="translate(-17.75 -18.48)"/><path class="cls-3" d="M209.43,64.9a67.26,67.26,0,0,0-10.38-4.22h0S139.77,39.68,72,62.62h0a75.92,75.92,0,0,0-49.59,97.89c21.59,68,73.4,103.38,73.7,103.58a67.77,67.77,0,0,0,9.52,5.85c27.56,13.95,60.38,7.25,81.92-14.29,0,0,35.74-33.36,56.41-105.53h0C254.18,116.76,240.29,80.52,209.43,64.9Z" transform="translate(-17.75 -18.48)"/></svg>