<svg id="Layer_1" data-name="Layer 1" xmlns="http://www.w3.org/2000/svg" xmlns:xlink="http://www.w3.org/1999/xlink" viewBox="0 0 293.71 265.69"><defs><style>.cls-1{opacity:0.9;fill:url(#linear-gradient);}.cls-2,.cls-3{opacity:0.8;}.cls-2{fill:url(#radial-gradient);}.cls-3{fill:url(#radial-gradient-2);}</style><linearGradient id="linear-gradient" x1="647.25" y1="-1464.45" x2="885.85" y2="-1464.45" gradientTransform="translate(1335.57 1293.24) rotate(-73.2)" gradientUnits="userSpaceOnUse"><stop offset="0" stop-color="#d4302f"/><stop offset="0.38" stop-color="#d12e2e"/><stop offset="0.71" stop-color="#c6282a"/><stop offset="1" stop-color="#b62025"/></linearGradient><radialGradient id="radial-gradient" cx="-4.34" cy="282.49" r="376.72" gradientUnits="userSpaceOnUse"><stop offset="0" stop-color="#f8ed33"/><stop offset="0.07" stop-color="#f7d934"/><stop offset="0.21" stop-color="#f4a536"/><stop offset="0.42" stop-color="#f05339"/><stop offset="0.45" stop-color="#ef453a"/><stop offset="0.72" stop-color="#df3934"/><stop offset="1" stop-color="#d4302f"/></radialGradient><radialGradient id="radial-gradient-2" cx="20.04" cy="321.53" r="390.9" gradientTransform="translate(-59.32 2.79) rotate(-11.02)" gradientUnits="userSpaceOnUse"><stop offset="0" stop-color="#fdc20f"/><stop offset="0.23" stop-color="#fbae16"/><stop offset="0.45" stop-color="#f8981d"/><stop offset="0.61" stop-color="#f6811f"/><stop offset="0.86" stop-color="#f26322"/><stop offset="1" stop-color="#f15823"/></radialGradient></defs><title>orangeind</title><path class="cls-1" d="M16.3,206l210.34,76.31a19.48,19.48,0,0,0,25.83-21.72L213.38,40.31a19.48,19.48,0,0,0-31.72-11.5L10.4,172.81A19.48,19.48,0,0,0,16.3,206Z" transform="translate(-3.45 -17.85)"/><path class="cls-2" d="M126.88,30.13,15,223.91a19.49,19.49,0,0,0,16.88,29.23H255.63a19.48,19.48,0,0,0,16.87-29.23L160.63,30.13A19.49,19.49,0,0,0,126.88,30.13Z" transform="translate(-3.45 -17.85)"/><path class="cls-3" d="M105.41,31.51,29.9,251.07a20.22,20.22,0,0,0,23,26.42l227.9-44.39A20.22,20.22,0,0,0,292.18,200L139.78,24.81A20.22,20.22,0,0,0,105.41,31.51Z" transform="translate(-3.45 -17.85)"/></svg>