<svg id="Layer_1" data-name="Layer 1" xmlns="http://www.w3.org/2000/svg" xmlns:xlink="http://www.w3.org/1999/xlink" viewBox="0 0 252 258.64"><defs><style>.cls-1{fill:url(#linear-gradient);}.cls-2{opacity:0.7;fill:url(#linear-gradient-2);}.cls-3{opacity:0.8;fill:url(#radial-gradient);}</style><linearGradient id="linear-gradient" x1="159.88" y1="433.73" x2="376.9" y2="433.73" gradientTransform="matrix(0.91, 0.42, -0.42, 0.91, 80.87, -358.69)" gradientUnits="userSpaceOnUse"><stop offset="0" stop-color="#a1dbf7"/><stop offset="0.14" stop-color="#9ad2f1"/><stop offset="0.35" stop-color="#88bae0"/><stop offset="0.63" stop-color="#6a93c5"/><stop offset="0.95" stop-color="#425ea0"/><stop offset="1" stop-color="#3a5499"/></linearGradient><linearGradient id="linear-gradient-2" x1="71.03" y1="354.92" x2="320.93" y2="354.92" gradientTransform="translate(-58.1 -191.86) rotate(-2.45)" gradientUnits="userSpaceOnUse"><stop offset="0" stop-color="#a43f97"/><stop offset="0.27" stop-color="#9b4198"/><stop offset="0.7" stop-color="#83469b"/><stop offset="1" stop-color="#6f4a9e"/></linearGradient><radialGradient id="radial-gradient" cx="29.4" cy="281.49" r="337.59" gradientUnits="userSpaceOnUse"><stop offset="0" stop-color="#a43f97"/><stop offset="0.19" stop-color="#90439a"/><stop offset="0.45" stop-color="#6f4a9e"/><stop offset="0.55" stop-color="#634c9d"/><stop offset="0.84" stop-color="#45529a"/><stop offset="1" stop-color="#3a5499"/></radialGradient></defs><title>purpleind</title><path class="cls-1" d="M191.1,57.2,80,81.78c-42.17,9.32-58.43,60.79-29.28,92.65l76.86,84c29.16,31.85,81.87,20.2,94.88-21l34.29-108.54C269.72,87.7,233.27,47.88,191.1,57.2Z" transform="translate(-28.55 -22.81)"/><path class="cls-2" d="M153.29,37.61,52.1,120.93c-38.39,31.61-28.16,92.92,18.41,110.36l122.75,46c46.57,17.44,94.55-22.07,86.37-71.12L258.06,76.85C249.88,27.8,191.67,6,153.29,37.61Z" transform="translate(-28.55 -22.81)"/><path class="cls-3" d="M106.89,69.74,50,168.32c-21.59,37.4,5.4,84.15,48.59,84.15H212.39c43.19,0,70.18-46.75,48.58-84.15L204.05,69.74C182.46,32.34,128.48,32.34,106.89,69.74Z" transform="translate(-28.55 -22.81)"/></svg>