<svg id="Layer_1" data-name="Layer 1" xmlns="http://www.w3.org/2000/svg" xmlns:xlink="http://www.w3.org/1999/xlink" viewBox="0 0 254.96 252.44"><defs><style>.cls-1,.cls-3{opacity:0.8;}.cls-1{fill:url(#radial-gradient);}.cls-2{fill:url(#linear-gradient);}.cls-3{fill:url(#radial-gradient-2);}</style><radialGradient id="radial-gradient" cx="60.04" cy="256.42" r="394.37" gradientTransform="translate(-55.52 69.34) rotate(-10.91)" gradientUnits="userSpaceOnUse"><stop offset="0" stop-color="#e7bfda"/><stop offset="0.07" stop-color="#e5abcb"/><stop offset="0.22" stop-color="#e077a5"/><stop offset="0.43" stop-color="#d82567"/><stop offset="0.45" stop-color="#d71e62"/><stop offset="0.66" stop-color="#ca4284"/><stop offset="0.88" stop-color="#bf60a0"/><stop offset="1" stop-color="#bb6bab"/></radialGradient><linearGradient id="linear-gradient" x1="37.69" y1="144.62" x2="278.24" y2="144.62" gradientUnits="userSpaceOnUse"><stop offset="0" stop-color="#e7bfda"/><stop offset="0.19" stop-color="#e2b6d5"/><stop offset="0.5" stop-color="#d69ec8"/><stop offset="0.89" stop-color="#c278b2"/><stop offset="1" stop-color="#bb6bab"/></linearGradient><radialGradient id="radial-gradient-2" cx="13.72" cy="247.53" r="369.93" gradientUnits="userSpaceOnUse"><stop offset="0" stop-color="#d497c3"/><stop offset="0.09" stop-color="#d483b3"/><stop offset="0.28" stop-color="#d6508a"/><stop offset="0.45" stop-color="#d71e62"/><stop offset="0.67" stop-color="#b11c5a"/><stop offset="0.88" stop-color="#931b53"/><stop offset="1" stop-color="#881a51"/></radialGradient></defs><title>redind</title><path class="cls-1" d="M273.68,202.82A38.56,38.56,0,0,1,243.11,248L97.25,276.08a38.57,38.57,0,0,1-45.17-30.57L24,99.65A38.57,38.57,0,0,1,54.55,54.48l145.86-28.1A38.57,38.57,0,0,1,245.58,57Z" transform="translate(-23.28 -24.35)"/><path class="cls-2" d="M244.49,237.2a36.18,36.18,0,0,1-43.66,26.67L65.38,231.14a36.18,36.18,0,0,1-26.67-43.66L71.44,52A36.16,36.16,0,0,1,115.1,25.37L250.55,58.1a36.18,36.18,0,0,1,26.67,43.66Z" transform="translate(-23.28 -24.35)"/><path class="cls-3" d="M61.42,12.85H200.77A36.18,36.18,0,0,1,236.94,49V188.37a36.18,36.18,0,0,1-36.18,36.18H61.42a36.17,36.17,0,0,1-36.17-36.17V49A36.18,36.18,0,0,1,61.42,12.85Z"/></svg>