<?xml version="1.0" encoding="iso-8859-1"?>
<!-- Generator: Adobe Illustrator 19.0.0, SVG Export Plug-In . SVG Version: 6.00 Build 0)  -->
<svg version="1.1" id="Capa_1" xmlns="http://www.w3.org/2000/svg" xmlns:xlink="http://www.w3.org/1999/xlink" x="0px" y="0px"
	 viewBox="0 0 512 512" style="enable-background:new 0 0 512 512;" xml:space="preserve">
<path style="fill:#4DB5FF;" d="M512,335.448V512H229.517V335.448c0-29.255,23.711-52.966,52.966-52.966h176.552
	C488.289,282.483,512,306.194,512,335.448z"/>
<path style="fill:#3596D8;" d="M393.393,444.769l3.849,23.093l-26.483,35.31l-26.183-34.904
	c-31.197,11.441-64.177,17.284-97.404,17.249c-5.932,0-11.811-0.247-17.655-0.6V512H512V335.448c0-7.565-1.633-15.042-4.785-21.919
	C483.937,368.102,444.125,414.005,393.393,444.769z"/>
<polygon style="fill:#235087;" points="361.931,361.931 379.586,361.931 397.241,467.862 370.759,503.172 344.276,467.862 "/>
<g>
	<path style="fill:#FFD4B0;" d="M273.655,141.241H256c-9.754,0-17.655,7.901-17.655,17.655l0,0c0,9.754,7.901,17.655,17.655,17.655
		h17.655V141.241z"/>
	<path style="fill:#FFD4B0;" d="M467.862,141.241h17.655c9.754,0,17.655,7.901,17.655,17.655l0,0
		c0,9.754-7.901,17.655-17.655,17.655h-17.655V141.241z"/>
</g>
<g>
	<polygon style="fill:#B7E5FF;" points="370.759,317.793 406.069,282.483 459.034,282.483 406.069,353.103 	"/>
	<polygon style="fill:#B7E5FF;" points="370.759,317.793 335.448,282.483 282.483,282.483 335.448,353.103 	"/>
</g>
<polygon style="fill:#235087;" points="344.276,344.276 370.759,317.793 397.241,344.276 379.586,361.931 361.931,361.931 "/>
<path style="fill:#FFDC13;" d="M167.724,353.103h-17.655v-17.655c0-4.873-3.955-8.828-8.828-8.828h-35.31
	c-4.873,0-8.828,3.955-8.828,8.828v17.655H79.448v-17.655c0-14.627,11.855-26.483,26.483-26.483h35.31
	c14.627,0,26.483,11.855,26.483,26.483V353.103z"/>
<rect y="353.103" style="fill:#FFA511;" width="247.172" height="158.897"/>
<rect y="423.724" style="fill:#FFDC13;" width="247.172" height="17.655"/>
<g>
	<path style="fill:#F08015;" d="M8.828,503.172c-2.957,0-5.888-0.141-8.828-0.221V512h247.172v-70.621h-56.011
		C138.867,481.536,74.761,503.261,8.828,503.172z"/>
	<path style="fill:#F08015;" d="M212.18,423.724h34.993v-38.356C236.632,399.139,224.927,411.966,212.18,423.724z"/>
</g>
<path style="fill:#E5AF17;" d="M191.161,441.379h56.011v-17.655H212.18C205.453,429.93,198.444,435.818,191.161,441.379z"/>
<rect x="105.931" y="432.552" style="fill:#FFDC13;" width="35.31" height="35.31"/>
<path style="fill:#FFD4B0;" d="M406.069,282.483V258.11c37.235-14.539,61.767-50.406,61.793-90.386V70.621H273.655v97.103
	c0.026,39.98,24.558,75.847,61.793,90.386v24.373l35.31,35.31L406.069,282.483z"/>
<g>
	<path style="fill:#235087;" d="M344.276,0c-39,0-70.621,31.62-70.621,70.621v35.31h79.448c19.5,0,35.31-15.81,35.31-35.31h79.448V0
		H344.276z"/>
	<path style="fill:#235087;" d="M353.103,167.724h-17.655v-8.828c0-4.873-3.955-8.828-8.828-8.828c-4.873,0-8.828,3.955-8.828,8.828
		v8.828h-17.655v-8.828c0-14.627,11.855-26.483,26.483-26.483s26.483,11.855,26.483,26.483V167.724z"/>
	<path style="fill:#235087;" d="M441.379,167.724h-17.655v-8.828c0-4.873-3.955-8.828-8.828-8.828s-8.828,3.955-8.828,8.828v8.828
		h-17.655v-8.828c0-14.627,11.855-26.483,26.483-26.483s26.483,11.855,26.483,26.483V167.724z"/>
</g>
<path style="fill:#EF2648;" d="M370.759,238.345c-19.5,0-35.31-15.81-35.31-35.31v-8.828h17.655v8.828
	c0,9.754,7.901,17.655,17.655,17.655c9.754,0,17.655-7.901,17.655-17.655v-8.828h17.655v8.828
	C406.069,222.535,390.259,238.345,370.759,238.345z"/>
<path style="fill:#EDC4A2;" d="M370.759,264.828c-12.085-0.018-24.064-2.295-35.31-6.718v15.422
	c17.805,13.489,40.086,19.668,62.296,17.276l8.324-8.324V258.11C394.823,262.532,382.844,264.81,370.759,264.828z"/>
<path style="fill:#163768;" d="M370.759,503.172l26.483-35.31l-3.849-23.093c-15.475,9.384-31.823,17.258-48.817,23.499
	L370.759,503.172z"/>
<g>
</g>
<g>
</g>
<g>
</g>
<g>
</g>
<g>
</g>
<g>
</g>
<g>
</g>
<g>
</g>
<g>
</g>
<g>
</g>
<g>
</g>
<g>
</g>
<g>
</g>
<g>
</g>
<g>
</g>
</svg>
